# xmcd CD database file generated by Grip 2.96
# 
# Track frame offsets:
#       150
#       5893
#       17954
#       28198
#       36864
#       52891
#       63723
#       82813
#       90819
#       102243
#       114870
#       122682
#       128552
#       136636
#       144236
#       166087
#       168325
#       177370
#       190370
#       214327
#       219034
#       221287
#       234451
#       239091
#       248006
# 
# Disc length: 3446 seconds
# 
# Revision: 0
# Processed by: cddbd v1.4PL0 Copyright (c) Steve Scherf et al.
# Submitted via: Grip 2.96
# 
DISCID=4a0d7419
DTITLE=Pine State - Rollin' With The Low Rollers
DYEAR=1900
DGENRE=
TTITLE0=Star Spangled Banner
TTITLE1=Ring Of Fire
TTITLE2=Hatchetsaw Hayride 7
TTITLE3=How About Me?
TTITLE4=King Of Swagger
TTITLE5=The Girl Can't Dance
TTITLE6=Most Beautiful Girl - War Machine
TTITLE7=Hatchetsaw Hayride 8
TTITLE8=Understand Your Man
TTITLE9=Tonight The Bottle Let Me Down
TTITLE10=Cunt Tease
TTITLE11=Hatchetsaw Hayride 9
TTITLE12=Everybody's Truckin'
TTITLE13=Alone And Blue
TTITLE14=Roll On Big Mama - Folsom Prison Blues
TTITLE15=Hatchetsaw Hayride 10
TTITLE16=Robert DeNiro - Travellin' Band
TTITLE17=Truck Drivin' Man
TTITLE18=The Gambler
TTITLE19=Hatchetsaw Hayride 11
TTITLE20=One Piece At A Time
TTITLE21=Rhinestone Cowboy
TTITLE22=The Jim Song
TTITLE23=Moanin' The Blues
TTITLE24=There Stands The Glass
EXTD=
EXTT0=
EXTT1=
EXTT2=
EXTT3=
EXTT4=
EXTT5=
EXTT6=
EXTT7=
EXTT8=
EXTT9=
EXTT10=
EXTT11=
EXTT12=
EXTT13=
EXTT14=
EXTT15=
EXTT16=
EXTT17=
EXTT18=
EXTT19=
EXTT20=
EXTT21=
EXTT22=
EXTT23=
EXTT24=
PLAYORDER=
